<svg xmlns="http://www.w3.org/2000/svg" width="48" height="49" class="icon">
        <path d="M 25.431 1.007 C 25.186 0.398 24.599 0 23.948 0 C 23.296 0 22.71 0.398 22.464 1.007 L 18.644 10.482 L 9.074 7.278 C 8.489 7.082 7.844 7.243 7.416 7.691 C 6.988 8.14 6.853 8.796 7.069 9.38 L 10.591 18.893 L 0.976 23.011 C 0.38 23.267 -0.006 23.86 -0 24.514 C 0.006 25.168 0.401 25.754 1.002 25.999 L 10.425 29.843 L 6.831 39.454 C 6.611 40.041 6.748 40.704 7.183 41.153 C 7.617 41.603 8.269 41.758 8.857 41.552 L 18.579 38.131 L 22.461 47.904 C 22.704 48.517 23.293 48.919 23.948 48.919 C 24.602 48.919 25.191 48.517 25.434 47.904 L 29.364 38.01 L 39.271 41.549 C 39.859 41.759 40.514 41.606 40.95 41.156 C 41.386 40.707 41.525 40.042 41.304 39.454 L 37.679 29.758 L 46.893 25.999 C 47.494 25.754 47.89 25.168 47.895 24.514 C 47.901 23.86 47.515 23.267 46.919 23.011 L 37.512 18.982 L 41.066 9.38 C 41.282 8.797 41.148 8.141 40.72 7.692 C 40.293 7.244 39.649 7.083 39.064 7.278 L 29.274 10.538 Z M 30.484 13.541 L 31.669 16.48 L 34.56 17.718 L 36.896 11.406 Z M 34.708 30.97 L 31.668 32.21 L 30.557 35.006 L 37.089 37.339 Z M 17.386 35.126 L 16.227 32.21 L 13.396 31.055 L 11.039 37.359 Z M 13.543 17.629 L 16.226 16.48 L 17.433 13.485 L 11.242 11.412 L 13.543 17.629 Z M 18.944 18.318 L 23.948 5.907 L 28.951 18.318 C 29.111 18.714 29.42 19.03 29.809 19.197 L 42.107 24.464 L 29.835 29.469 C 29.431 29.634 29.111 29.958 28.948 30.367 L 23.948 42.957 L 18.947 30.367 C 18.785 29.958 18.464 29.634 18.06 29.469 L 5.788 24.464 L 18.086 19.197 C 18.476 19.03 18.784 18.714 18.944 18.318 Z" fill="rgb(255,255,255)"></path>
      </svg>